<svg xmlns="http://www.w3.org/2000/svg" viewBox="0 0 564 65"><path fill="#4f2683" d="M4.4 3.1v1.6l4.1 4.6v31.6L3 42.5v1.9h15v-1.9l-4.7-1.2-1.2-1.5V13.4l26.3 31.3h2.3V7l5.6-1.7v-2H31v2.2l4.8 1.2L37 8.3v25h-.3L11.2 3.1H4.4zM60.7 45c-7.4 0-14.5-4.8-14.5-14.9C46.2 20 53.7 15 60.7 15c7.3 0 14.7 4.6 14.7 14.7 0 9.6-7.8 15.3-14.7 15.3zm8.9-14.5c0-6.9-3.8-12.8-9.7-12.8-5.3 0-8 4.6-8 11.6 0 6.9 3.3 13 9.6 13 5.3-.1 8.1-4.9 8.1-11.8zm80.4-3c0-6.9-3.9-8.3-8.4-8.3-3.8 0-6.3 2.8-6.3 2.8v17.8l1.2 1.5 4 1.4v1.6h-14.4v-1.6l4.1-1.5V11.4c0-5.4-1.4-6.9-4.3-6.9V3.1L135 0h.6s-.3 6.4-.3 11.1v8.6s5.9-4.8 10-4.8c5.1 0 9.8 2.1 9.8 9.6v15.3l1.2 1.5 4 1.4v1.6h-14.4v-1.6l4-1.5.1-13.7zm58.4 1c0 8.6 4.9 12.2 10.5 12.2 3.5 0 7.6-1.4 7.6-1.4l.6 1.2c-1.5 1.5-5.6 4.6-10.8 4.6-7 0-13.4-5.3-13.4-14.9 0-8.8 6.1-15.2 13.6-15.2 5.9 0 10.5 3.5 10.5 10.2 0 1.7-.3 3.3-.3 3.3h-18.3zm9.1-2.4c3-.1 4-.7 4-3.7 0-2.6-1.9-4.6-5.8-4.6-4.1 0-7.3 3.6-7.3 8.6l9.1-.3zm16.3 17.8c-.4-.2-1.5-.8-1.6-2.1l-.4-5.9h2.7c.7 4 3.5 6.6 7 6.6 3.6 0 5-1.9 5-4.3 0-2.3-1.9-3.6-4.3-4.8l-3.2-1.6c-4.5-2.3-6.7-4.1-6.7-8.6 0-5.6 4-8.2 10.3-8.2 4.4 0 7.8 1.7 7.8 1.7l-.8 7.2h-2.5c0-4.5-1.9-6.2-5.6-6.2-2.5 0-4.9 1-4.9 3.5 0 2 .8 2.8 5.7 5.4l2.8 1.4c5.1 2.6 6.5 4.8 6.5 9 0 5.1-5.1 8.1-10 8.1-3.2-.1-6-.4-7.8-1.2zm48.6-15.4c0 8.6 4.9 12.2 10.5 12.2 3.5 0 7.6-1.4 7.6-1.4l.6 1.2c-1.5 1.5-5.6 4.6-10.8 4.6-7 0-13.4-5.3-13.4-14.9 0-8.8 6.1-15.2 13.6-15.2 5.9 0 10.5 3.5 10.5 10.2 0 1.7-.3 3.3-.3 3.3h-18.3zm9.1-2.4c3-.1 4-.7 4-3.7 0-2.6-1.9-4.6-5.8-4.6-4.1 0-7.3 3.6-7.3 8.6l9.1-.3zm67.1 15.3-1.2-1.5.1-15.7c0-7.2-4.7-9.3-9.5-9.3-4.1 0-9.8 4.8-9.8 4.8 0-2.6.1-4.9.1-4.9h-.5l-9 3.3v1.5c3.5 0 4.4 3.1 4.4 8.7v13l-4.1 1.5v1.6h14.2l.1-1.6-4-1.4-1.2-1.5V22.1s2.2-2.9 6.1-2.9c4 0 8.2 1.4 8.2 8.3l-.2 13.7-3.9 1.5v1.6h14.2l.1-1.6-4.1-1.3zm-171.7 3.3-6.6-18.4-7.6 18.4h-2.6L162.6 22c-1.1-2.8-1.7-4.5-3.6-4.5v-1.7h12.2v1.7l-3.7 1.2 5.6 18.8 4.9-11.8 1.1-3-1.7-4.8-2.1-.5v-1.7h11.8v1.9l-3.7 1.1 6.3 18.8 6.5-18.7-4.2-1.5v-1.6h11v1.7c-2.5.3-3.8 1-5.8 6.1l-7.5 21.2h-2.8zm-64.2-4.6s-1.7 1.1-4.3 1.1c-2.8 0-5.3-1.5-5.3-5.4l.2-16.2h9.3l.1-1 .6-5.1-1.2-.2-.9 1.9-.5.4-7.3.3h-.1V8.6l-3.6.6-1.5 7-5.1.5v2.4c2.8 0 5.1.2 5.1 2.9s-.2 11-.2 14.4c0 6.3 2.4 8.7 6.4 8.7 3.5 0 6.3-1.4 8.9-3.5.1-.1-.6-1.5-.6-1.5zm151.4 0s-1.7 1.1-4.3 1.1c-2.8 0-5.3-1.5-5.3-5.4l.2-16.2h9.2l.1-1 .6-5.1-1.2-.2-.9 1.9-.5.4-7.3.3V8.6l-3.6.6-1.5 7-5.1.5v2.4c2.8 0 5.1.2 5.1 2.9s-.2 11-.2 14.3c0 6.3 2.4 8.7 6.4 8.7 3.5 0 6.3-1.4 8.9-3.5l-.6-1.4zM99.7 15.3s-1.1-.4-3.1-.4c-4.3 0-8.8 6.8-8.8 6.8 0-3.8.1-7 .1-7h-.5L78.6 18v1.5c3.3 0 4.4 3 4.4 8.2v13.5l-4.1 1.5v1.6H93v-1.6l-4-1.4-1.2-1.5V26.7c0-4.1 3.2-6.4 6.7-6.4.7 0 1.4.2 2.1.4l1 1.4 1.2.1c-.1 0 .9-6.9.9-6.9zm226.2 0s-1.1-.4-3.1-.4c-4.3 0-8.8 6.8-8.8 6.8 0-3.8.1-7 .1-7h-.5l-8.8 3.3v1.5c3.3 0 4.4 3 4.4 8.2v13.5l-4.1 1.5v1.6h14.2v-1.6l-4-1.4-1.2-1.5V26.7c0-4.1 3.2-6.4 6.7-6.4.7 0 1.4.2 2.1.4l1 1.4 1.2.1.8-6.9zm49.8 36V-5h.5v56.3h-.5z"/><g fill="#4f2683"><path d="M411.1 19c-.3.3-1.3 1.2-1.3 1.7s.5 1.2 1.4 2.4L422.3 38c4.5 6.2 7.1 4.5 7.1 6 0 .4-.1.8-.7.8-1.3 0-2.8-.2-4.4-.2-1.1 0-2.3.2-3.9.2-1.1 0-1.7-.1-2.8-1.7L406 27.2c-.8-1-1.1-1.6-1.5-1.6-.5 0-1.5 1-2.7 2.4-.9 1-.8 1.5-.8 2.8v7.6c0 5.3 5.7 3.5 5.7 5.6 0 .5-.2.7-1.6.7-1.6 0-3.1-.2-6.4-.2-2.8 0-5.8.2-7.6.2-1.1 0-1.8-.1-1.8-.5 0-2.9 4.6.9 4.6-7.9V11.1c0-7-6.1-4.1-6.1-6.6 0-.6.5-.9 1.2-.9 1.1 0 3 .2 7 .2 3.2 0 6.9-.2 8.1-.2.5 0 1.2 0 1.2.7 0 2.3-4.2-.8-4.2 5.6v13.3c0 .6-.1 1.4.3 1.3.3.1.7-.2 1.5-1l7.7-7.5c1.6-1.6 7.3-6.3 7.3-8.9 0-1.8-3.5-1-3.5-2.4 0-1 .6-1.1 1.3-1.1.6 0 4.6.2 6.3.2 1.5 0 3-.2 5.5-.2.5 0 1.5-.1 1.5 1 0 1.6-1.9-.2-7.5 4.9L411.1 19z"/><path d="M435.3 30.1c-1 0-1.3-.4-1.3 1.4 0 5 3.5 9.5 8.6 9.5 3.4 0 6.3-3.1 7.2-3.1.2 0 .6.1.6.7 0 1.5-4.9 6-10.8 6-5.7 0-11.4-3.7-11.4-11.6 0-6.7 3.8-13.9 11.3-13.9 7.8 0 10.9 6.6 10.9 9.6 0 1.3-.3 1.3-.7 1.3-.1.1-14.4.1-14.4.1zm7.4-2c1 0 1.3.1 1.3-1.6 0-2.2-1.6-5.6-5.3-5.6-3.5 0-4.8 3.4-4.8 6.1 0 .9.1 1.1.3 1.1h8.5zm13-19.2c0-3.4-3.8-1.6-3.8-3.2 0-1 .9-.8 4.6-2 4.5-1.3 4.3-2.3 5.3-2.3.8 0 .1 1.6.1 4.9v33.2c0 4.1 4.3 3.3 4.3 4.6 0 .6-.2.8-1.2.8-1.2 0-4.8-.2-6.5-.2-1.3 0-3.9.2-5.2.2-.5 0-1 0-1-.6 0-1.8 3.4.5 3.4-4.9V8.9zm15.8 0c0-3.4-3.8-1.6-3.8-3.2 0-1 .9-.8 4.6-2 4.5-1.3 4.3-2.3 5.3-2.3.8 0 .1 1.6.1 4.9v33.2c0 4.1 4.3 3.3 4.3 4.6 0 .6-.2.7-1.2.7-1.2 0-4.8-.2-6.5-.2-1.3 0-3.9.2-5.2.2-.5 0-1 0-1-.6 0-1.8 3.4.5 3.4-4.9V8.9zm23.3 35.9c-7 0-12.5-4.9-12.5-12 0-7.6 5.4-13.5 13.2-13.5 7.3 0 12.8 4.8 12.8 12.1 0 7.9-5.5 13.4-13.5 13.4zm-6.3-15.4c-.2 3.8 1.7 13.3 8.1 13.3 4.5 0 5.9-3.4 5.9-7.3 0-4.6-1.7-14.3-7.9-14.3-5.2 0-6 4.2-6.1 8.3zm22.1 21.4c0-3.5 3.8-4.5 4.3-4.5-.6-.5-2.5-1.8-2.5-5.3 0-2.4 1-4.1 3.1-5.6-3.1-2-4.8-3.5-4.8-7.4 0-5.6 4.6-8.8 10.4-8.8 4 0 6.3 2 8.2 2 3.4 0 3.3-3.6 4.2-3.6.5 0 .6.5.6 1.6 0 5.5-1.6 5.6-2.6 6.2.1 1 0 .2.1 1.7.1 3.7-2.1 9.1-10.7 9.1-.9 0-1.8-.1-3-.1-1.7 0-2.4 1.2-2.4 2.5 0 2.3.3 2.5 8.8 2.6 8.1 0 9.8 2.4 9.8 6 0 3.4-2.4 6.1-5.4 7.3-3.4 1.3-5.3 1.4-8.9 1.4-2.3 0-9.2-.5-9.2-5.1zm7-4c-1.6 0-2.3 1.5-2.3 2.9 0 3.8 3.8 4.5 6.5 4.5 3 0 7.8-.6 7.8-4.6 0-2.7-2-2.8-12-2.8zm3.3-25.9c-1 0-4.5.5-4.5 6.8 0 2.9 1.2 7 4.8 7 3.7 0 4.8-3.4 4.8-6.5-.1-3.3-1.2-7.3-5.1-7.3zm15.4 29.9c0-3.5 3.8-4.5 4.3-4.5-.6-.5-2.5-1.8-2.5-5.3 0-2.4 1-4.1 3.1-5.6-3.1-2-4.8-3.5-4.8-7.4 0-5.6 4.6-8.8 10.4-8.8 4 0 6.3 2 8.2 2 3.4 0 3.3-3.6 4.2-3.6.5 0 .6.5.6 1.6 0 5.5-1.6 5.6-2.6 6.2.1 1 0 .2.1 1.7.1 3.7-2.1 9.1-10.7 9.1-.9 0-1.8-.1-3-.1-1.7 0-2.4 1.2-2.4 2.5 0 2.3.3 2.6 8.8 2.6 8.1 0 9.8 2.4 9.8 6 0 3.4-2.4 6.1-5.4 7.3-3.4 1.3-5.3 1.4-8.9 1.4-2.3 0-9.2-.5-9.2-5.1zm7-4c-1.6 0-2.3 1.5-2.3 2.9 0 3.8 3.8 4.5 6.5 4.5 3 0 7.8-.6 7.8-4.6 0-2.7-2-2.8-12-2.8zm3.3-25.9c-1 0-4.5.5-4.5 6.8 0 2.9 1.2 7 4.8 7 3.7 0 4.8-3.4 4.8-6.5-.1-3.3-1.2-7.3-5.1-7.3z"/></g></svg>
